<svg width="75" height="58" viewBox="0 0 75 58" fill="none" xmlns="http://www.w3.org/2000/svg">
<path d="M2.94287 17.4026C1.8187 20.2508 -0.342043 25.2804 1.52671 29.0457C3.39545 32.8109 5.92119 36.4928 7.55634 42.0921C9.19149 47.6913 15.6883 53.7351 19.6448 55.722C23.6013 57.7088 27.2366 59.2649 34.551 55.2913C41.8654 51.3176 42.3034 49.692 45.2087 45.7184C48.114 41.7447 52.2895 39.6884 59.0053 37.4793C65.7211 35.2702 71.5318 32.3802 73.0209 26.5587C74.5101 20.7371 70.1886 13.7902 67.5753 10.8864C64.9619 7.98253 48.187 1.79975 41.2522 1.36904C34.3174 0.938328 11.5858 7.05164 7.62934 10.8864C3.67285 14.7211 2.94287 17.4026 2.94287 17.4026Z" fill="#EFEFEF"/>
<path fill-rule="evenodd" clip-rule="evenodd" d="M33.488 0.800256C36.6637 0.226416 39.4652 -0.0910022 41.301 0.0230224C44.8907 0.245969 50.9099 1.93512 56.3055 3.90065C59.0169 4.88841 61.6018 5.95725 63.6811 6.96692C64.7204 7.47155 65.6429 7.96605 66.3959 8.43285C67.1359 8.89163 67.7612 9.35321 68.1645 9.80139C69.5236 11.3116 71.3064 13.8462 72.5644 16.7596C73.8173 19.6613 74.5958 23.0467 73.789 26.2009C72.1823 32.4819 65.9401 35.4786 59.2528 37.6783C52.561 39.8796 48.5972 41.8728 45.8486 45.6321C45.479 46.1377 45.1439 46.6142 44.8244 47.0683C43.9304 48.3394 43.1593 49.4359 42.0963 50.5087C40.6303 51.9883 38.6148 53.4316 34.9293 55.4338C31.1854 57.4678 28.2992 58.1314 25.7903 57.9791C23.295 57.8276 21.2683 56.8706 19.2885 55.8764C17.2053 54.8303 14.5199 52.7573 12.1532 50.252C9.79055 47.751 7.66256 44.7319 6.79466 41.76C5.62064 37.7398 4.00039 34.772 2.4635 31.957C1.89386 30.9136 1.33568 29.8912 0.815917 28.8439C-0.234917 26.7266 -0.12607 24.3161 0.336608 22.1595C0.757472 20.1978 1.49674 18.3386 2.04371 16.9631C2.0949 16.8343 2.1444 16.7098 2.1918 16.5899C2.19233 16.5881 2.19287 16.5864 2.19343 16.5845C2.20224 16.5558 2.21466 16.517 2.2313 16.4684C2.26459 16.3713 2.31477 16.2352 2.38673 16.0632C2.5307 15.7191 2.76166 15.2318 3.11864 14.6256C3.83297 13.4126 5.04931 11.7277 7.077 9.76243C7.6534 9.20377 8.52091 8.64695 9.55598 8.10243C10.6031 7.55157 11.8707 6.98824 13.2848 6.42898C16.114 5.31016 19.5711 4.19148 23.1116 3.20948C26.6531 2.22719 30.2923 1.37773 33.488 0.800256ZM3.70671 17.0607C3.69929 17.0874 3.69049 17.1136 3.68032 17.1394C3.62855 17.2706 3.57497 17.4055 3.51999 17.5439C2.9691 18.9308 2.27895 20.6682 1.88763 22.4923C1.45609 24.5038 1.41894 26.4907 2.23685 28.1387C2.71218 29.0964 3.24157 30.066 3.79394 31.0776C5.35122 33.9298 7.09117 37.1164 8.31738 41.3153C9.08464 43.9427 11.0226 46.7452 13.3063 49.1626C15.5859 51.5757 18.1271 53.5181 20.0004 54.4588C21.9772 55.4514 23.7464 56.2658 25.8864 56.3957C28.0129 56.5248 30.6016 55.9796 34.172 54.0399C37.8009 52.0685 39.6616 50.7121 40.9695 49.3922C41.9317 48.421 42.5989 47.4727 43.4616 46.2463C43.7924 45.7761 44.152 45.2649 44.5681 44.6958C47.6302 40.5078 52.0174 38.3885 58.7571 36.1715C65.5015 33.9529 70.8805 31.1698 72.2522 25.8077C72.9345 23.1403 72.2968 20.1416 71.108 17.3884C69.9242 14.6469 68.2396 12.2562 66.9854 10.8626C66.7354 10.5848 66.2647 10.2179 65.5601 9.78111C64.8684 9.3523 63.9975 8.88399 62.9882 8.3939C60.9705 7.41415 58.4383 6.3659 55.7625 5.39115C50.3835 3.43165 44.5479 1.81405 41.2027 1.60629C39.5712 1.50496 36.9306 1.79019 33.7701 2.36129C30.6297 2.92877 27.0383 3.76655 23.5356 4.73809C20.0317 5.70992 16.6307 6.81165 13.8682 7.90413C12.4866 8.45052 11.275 8.99056 10.2945 9.50633C9.30209 10.0284 8.59375 10.5015 8.18103 10.9015C6.25223 12.771 5.12533 14.3442 4.48555 15.4306C4.16548 15.9741 3.96666 16.3969 3.85012 16.6755C3.79183 16.8148 3.75407 16.9181 3.73198 16.9826C3.72094 17.0148 3.71381 17.0373 3.70999 17.0498C3.70816 17.0557 3.70709 17.0594 3.70671 17.0607Z" fill="#191919"/>
<path d="M11.0665 26.0537C10.6432 29.9162 12.7601 35.2792 17.9284 36.9882C23.0966 38.6971 29.5642 38.975 34.1339 34.001C38.7036 29.027 37.5648 23.4555 33.4769 17.7312C29.389 12.0069 12.7017 11.2983 11.0665 26.0537Z" fill="#EABE44"/>
<path fill-rule="evenodd" clip-rule="evenodd" d="M33.7837 33.6791C29.4023 38.4482 23.1754 38.222 18.078 36.5364C13.1732 34.9146 11.1347 29.8022 11.5398 26.1058C11.9383 22.51 13.2484 19.8896 15.0252 18.0545C16.8052 16.2163 19.0791 15.1402 21.4431 14.6798C23.8095 14.219 26.2522 14.3784 28.3458 14.9981C30.4471 15.6201 32.1493 16.6908 33.0898 18.0079C35.1087 20.8349 36.3633 23.5763 36.5779 26.1865C36.7907 28.7742 35.9858 31.2821 33.7837 33.6791ZM17.7792 37.4401C23.0182 39.1724 29.7266 39.502 34.4846 34.323C36.8521 31.746 37.7627 28.9812 37.5265 26.1085C37.2922 23.2584 35.9335 20.352 33.8644 17.4547C32.761 15.9097 30.8444 14.7451 28.616 14.0855C26.3798 13.4235 23.7821 13.2546 21.2612 13.7456C18.738 14.2369 16.278 15.3925 14.3415 17.3924C12.4019 19.3956 11.0128 22.2197 10.5938 26.0013L10.5937 26.0019C10.1521 30.0306 12.3475 35.6441 17.7792 37.4401Z" fill="#181818"/>
</svg>
