<svg width="22" height="27" viewBox="0 0 22 27" fill="none" xmlns="http://www.w3.org/2000/svg">
<path d="M14.2925 8.25833L20.7697 8.25833L17.4771 26.8801H11L14.2925 8.25833ZM18.1788 6.47712C17.1533 6.47712 16.3436 6.18025 15.7769 5.6135C15.1831 5.04676 14.9133 4.34507 14.9133 3.53543C14.9133 3.04964 14.9942 2.59085 15.1831 2.15904C15.3721 1.72723 15.6419 1.3494 15.9658 1.02554C16.2896 0.701688 16.6945 0.458796 17.1533 0.26988C17.6121 0.107952 18.0978 0 18.6106 0C19.6362 0 20.4458 0.296868 21.0125 0.863616C21.5793 1.45735 21.8762 2.13205 21.8762 2.94169C21.8762 3.42748 21.7682 3.88627 21.6063 4.31808C21.4174 4.74989 21.1475 5.12772 20.8236 5.45158C20.4728 5.77543 20.095 6.01832 19.6362 6.20724C19.1774 6.39616 18.6916 6.47712 18.1788 6.47712Z" fill="#191919"/>
<path d="M3.29253 8.25833L9.76965 8.25833L6.47712 26.8801H0L3.29253 8.25833ZM7.17881 6.47712C6.15327 6.47712 5.34362 6.18025 4.77687 5.6135C4.18314 5.04676 3.91326 4.34507 3.91326 3.53543C3.91326 3.04964 3.99422 2.59085 4.18314 2.15904C4.37206 1.72723 4.64194 1.3494 4.96579 1.02554C5.28965 0.701688 5.69447 0.458796 6.15326 0.26988C6.61206 0.107952 7.09784 0 7.61061 0C8.63616 0 9.4458 0.296868 10.0126 0.863616C10.5793 1.45735 10.8762 2.13205 10.8762 2.94169C10.8762 3.42748 10.7682 3.88627 10.6063 4.31808C10.4174 4.74989 10.1475 5.12772 9.82363 5.45158C9.47279 5.77543 9.09496 6.01832 8.63616 6.20724C8.17737 6.39616 7.69158 6.47712 7.17881 6.47712Z" fill="#191919"/>
</svg>
