<svg width="36" height="36" viewBox="0 0 36 36" fill="#EFEFEF" xmlns="http://www.w3.org/2000/svg">
<path d="M18.5 12.6667C15.2783 12.6667 12.6667 15.2783 12.6667 18.5C12.6667 21.7217 15.2783 24.3333 18.5 24.3333C21.7217 24.3333 24.3333 21.7217 24.3333 18.5C24.3333 15.2783 21.7217 12.6667 18.5 12.6667Z" />
<path fill-rule="evenodd" clip-rule="evenodd" d="M11.5 1C5.70101 1 1 5.70101 1 11.5V25.5C1 31.299 5.70101 36 11.5 36H25.5C31.299 36 36 31.299 36 25.5V11.5C36 5.70101 31.299 1 25.5 1H11.5ZM10.3333 18.5C10.3333 13.9897 13.9897 10.3333 18.5 10.3333C23.0103 10.3333 26.6667 13.9897 26.6667 18.5C26.6667 23.0103 23.0103 26.6667 18.5 26.6667C13.9897 26.6667 10.3333 23.0103 10.3333 18.5ZM26.6667 10.3333H29V8H26.6667V10.3333Z" />
</svg>
