<svg width="36" height="36" viewBox="0 0 36 36" fill="none" xmlns="http://www.w3.org/2000/svg">
<path d="M35.9836 4.38834C36.0536 3.9714 35.8961 3.54884 35.5698 3.27768C35.2434 3.00653 34.797 2.92731 34.3964 3.06948L0.796407 14.9925C0.3437 15.1532 0.0311679 15.5668 0.00219289 16.0435C-0.0267821 16.5203 0.233392 16.9682 0.663354 17.1818L10.2633 21.9511C10.6485 22.1424 11.1073 22.114 11.4656 21.8767L19.4346 16.5981L14.663 22.5244C14.4528 22.7854 14.3626 23.1219 14.4142 23.4522C14.4658 23.7824 14.6545 24.0759 14.9344 24.2613L29.3343 33.7997C29.6731 34.0242 30.1034 34.0626 30.477 33.9017C30.8507 33.7409 31.1167 33.4028 31.1837 33.0037L35.9836 4.38834Z" fill="#191919"/>
</svg>
